<?xml version="1.0" encoding="utf-8"?>
<!-- Generator: Adobe Illustrator 24.3.0, SVG Export Plug-In . SVG Version: 6.00 Build 0)  -->
<svg version="1.1" id="Layer_1" xmlns="http://www.w3.org/2000/svg" xmlns:xlink="http://www.w3.org/1999/xlink" x="0px" y="0px"
	 viewBox="0 0 1051.15 459.78" style="enable-background:new 0 0 1051.15 459.78;" xml:space="preserve">
<style type="text/css">
	.st0{display:none;}
	.st1{display:inline;}
	.st2{display:none;fill:none;stroke:#606060;stroke-width:34;stroke-miterlimit:10;}
	.st3{display:inline;fill:#606060;}
	.st4{display:none;fill:none;stroke:#000000;stroke-width:9;stroke-miterlimit:10;}
	.st5{fill:#019E8C;}
	.st6{filter:url(#Adobe_OpacityMaskFilter);}
	.st7{fill:#FFFFFF;}
	.st8{mask:url(#SVGID_1_);fill:#019E8C;}
	.st9{filter:url(#Adobe_OpacityMaskFilter_1_);}
	.st10{mask:url(#SVGID_2_);fill:#019E8C;}
	.st11{filter:url(#Adobe_OpacityMaskFilter_2_);}
	.st12{mask:url(#SVGID_3_);fill:#019E8C;}
	.st13{filter:url(#Adobe_OpacityMaskFilter_3_);}
	.st14{mask:url(#SVGID_4_);fill:#019E8C;}
</style>
<g>
	<g>
		<g>
			<path class="st5" d="M433.68,210.32c-8.07-33.98-38.96-53.67-57.44-65.02C316.07,108.35,134.06,0,134.06,0
				s-9.94,91.02,89.37,141.8c-54.51-18.12-82.6-50.23-97.07-78.31l-30.98-7.14c0,0,20.12,138.63,180.86,113.01
				c5.88-0.94,11.94-2.09,18.21-3.49c0.02,0.03,12.5,20.26-23.16,20.05H160.1c-51.76,0-93.73,41.96-93.73,93.73
				c0,25.88,10.49,49.31,27.45,66.28c16.96,16.96,40.39,27.45,66.27,27.45h7.71l-12.67,18.77c-9.16,13.57-11.28,30.7-5.71,46.09
				l5.23,14.46l80.75-79.33h120.47c0,0-7.33-38.79-52.53-41.16h-66.18c0-32.14-26.06-58.19-58.19-58.19
				c-29.53,0-53.92,22-57.69,50.5h-1.62c0-6.62,1.01-13.04,2.89-19.07c1.87-6.03,4.61-11.68,8.07-16.79
				c6.91-10.23,16.69-18.35,28.2-23.22c7.68-3.25,16.13-5.04,24.96-5.04c6.62,0,13.04,1.01,19.07,2.89
				c6.03,1.87,11.68,4.61,16.79,8.07c10.23,6.91,18.35,16.69,23.22,28.2c2.29,5.41,3.86,11.22,4.58,17.27h45.52l49.42-48.55
				c46.54,3.5,73.84-16.33,85.5-31.48C433.68,229.27,435.88,219.56,433.68,210.32z M370.81,208.27c-7.72,0-13.97-6.26-13.97-13.97
				c0-7.72,6.26-13.97,13.97-13.97s13.97,6.26,13.97,13.97C384.79,202.01,378.53,208.27,370.81,208.27z"/>
			<circle class="st5" cx="31.6" cy="311.37" r="31.6"/>
		</g>
	</g>
	<g>
		<path class="st5" d="M483.15,313.8l25.35-14.82c5.37,13.96,15.9,22.99,34.59,22.99c17.83,0,24.06-7.52,24.06-15.9
			c0-11.17-10.1-15.47-32.44-21.91c-22.99-6.66-45.33-16.33-45.33-44.9c0-28.36,23.63-44.68,49.41-44.68
			c24.7,0,43.61,12.67,53.71,33.73l-24.92,14.39c-5.37-11.39-13.53-19.33-28.79-19.33c-12.46,0-19.76,6.45-19.76,15.04
			c0,9.24,5.8,14.18,28.57,21.05c23.85,7.52,49.2,15.47,49.2,46.19c0,28.14-22.56,45.33-54.57,45.33
			C511.51,350.96,491.32,336.14,483.15,313.8z"/>
		<path class="st5" d="M713.45,240.54v107.41h-27.71v-12.03c-6.45,9.67-17.62,15.04-32.01,15.04c-22.77,0-40.6-15.9-40.6-44.47
			v-65.95h27.71v62.51c0,14.61,8.81,22.13,21.27,22.13c13.53,0,23.63-7.95,23.63-26.64v-58H713.45z"/>
		<path class="st5" d="M799.16,238.39v30.93c-14.39-1.72-32.65,4.73-32.65,27.28v51.34h-27.71V240.54h27.71v18.48
			C772.09,244.41,785.63,238.39,799.16,238.39z"/>
		<path class="st5" d="M920.54,240.54V342.8c0,35.23-27.71,51.13-56.07,51.13c-22.99,0-41.46-8.81-50.91-26.21l23.63-13.53
			c4.51,8.38,11.6,15.04,28.14,15.04c17.4,0,28.14-9.45,28.14-26.42v-11.6c-7.52,10.1-19.12,16.33-34.37,16.33
			c-30.51,0-53.49-24.7-53.49-55c0-30.08,22.99-55,53.49-55c15.25,0,26.85,6.23,34.37,16.33v-13.32H920.54z M893.47,292.53
			c0-16.97-12.67-29.22-30.08-29.22c-17.4,0-30.08,12.24-30.08,29.22c0,17.19,12.67,29.43,30.08,29.43
			C880.79,321.96,893.47,309.72,893.47,292.53z"/>
		<path class="st5" d="M999.38,325.83c10.74,0,19.33-4.51,24.06-10.74l22.34,12.89c-10.1,14.61-26.21,22.99-46.83,22.99
			c-36.09,0-58.86-24.71-58.86-56.71s22.99-56.71,56.71-56.71c31.79,0,54.35,25.14,54.35,56.71c0,4.08-0.43,7.73-1.07,11.39h-80.99
			C972.95,319.81,984.77,325.83,999.38,325.83z M1023.44,284.15c-3.44-15.47-15.04-21.7-26.64-21.7c-14.82,0-24.92,7.95-28.14,21.7
			H1023.44z"/>
	</g>
</g>
</svg>
