<svg width="1440" height="182" viewBox="0 0 1440 182" fill="none" xmlns="http://www.w3.org/2000/svg">
<g opacity="0.2">
<path d="M520.341 181L-788 -219" stroke="#B3B3B3"/>
<path d="M537.732 181L-388.927 -219" stroke="#B3B3B3"/>
<path d="M555.124 181L-146.275 -219" stroke="#B3B3B3"/>
<path d="M572.515 181L22.84 -219" stroke="#B3B3B3"/>
<path d="M589.906 181L151.717 -219" stroke="#B3B3B3"/>
<path d="M607.298 181L256.373 -219" stroke="#B3B3B3"/>
<path d="M624.689 181L345.51 -219" stroke="#B3B3B3"/>
<path d="M642.08 181L424.308 -219" stroke="#B3B3B3"/>
<path d="M659.472 181L496.093 -219" stroke="#B3B3B3"/>
<path d="M676.863 181L563.149 -219" stroke="#B3B3B3"/>
<path d="M694.254 181L627.161 -219" stroke="#B3B3B3"/>
<path d="M711.646 181L689.465 -219" stroke="#B3B3B3"/>
<path d="M729.037 181L751.218 -219" stroke="#B3B3B3"/>
<path d="M746.428 181L813.521 -219" stroke="#B3B3B3"/>
<path d="M763.819 181L877.533 -219" stroke="#B3B3B3"/>
<path d="M781.211 181L944.589 -219" stroke="#B3B3B3"/>
<path d="M798.602 181L1016.37 -219" stroke="#B3B3B3"/>
<path d="M815.993 181L1095.17 -219" stroke="#B3B3B3"/>
<path d="M833.385 181L1184.31 -219" stroke="#B3B3B3"/>
<path d="M850.776 181L1288.97 -219" stroke="#B3B3B3"/>
<path d="M868.167 181L1417.84 -219" stroke="#B3B3B3"/>
<path d="M885.559 181L1586.96 -219" stroke="#B3B3B3"/>
<path d="M902.95 181L1829.61 -219" stroke="#B3B3B3"/>
<path d="M920.341 181L2228.68 -219" stroke="#B3B3B3"/>
<path d="M520.341 181H920.341" stroke="#B3B3B3"/>
<path d="M520.341 181H920.341" stroke="#B3B3B3"/>
<path d="M520.341 181H920.341" stroke="#B3B3B3"/>
<path d="M520.341 181H920.341" stroke="#B3B3B3"/>
<path d="M520.341 181H920.341" stroke="#B3B3B3"/>
<path d="M520.341 181H920.342" stroke="#B3B3B3"/>
<path d="M520.338 180.999H920.344" stroke="#B3B3B3"/>
<path d="M520.331 180.997H920.351" stroke="#B3B3B3"/>
<path d="M520.311 180.991H920.371" stroke="#B3B3B3"/>
<path d="M520.262 180.976H920.42" stroke="#B3B3B3"/>
<path d="M520.151 180.942H920.531" stroke="#B3B3B3"/>
<path d="M519.922 180.872H920.76" stroke="#B3B3B3"/>
<path d="M519.478 180.736H921.204" stroke="#B3B3B3"/>
<path d="M518.664 180.487H922.018" stroke="#B3B3B3"/>
<path d="M517.239 180.052H923.443" stroke="#B3B3B3"/>
<path d="M514.841 179.318H925.841" stroke="#B3B3B3"/>
<path d="M510.944 178.127H929.739" stroke="#B3B3B3"/>
<path d="M504.798 176.248H935.884" stroke="#B3B3B3"/>
<path d="M495.362 173.363H945.32" stroke="#B3B3B3"/>
<path d="M481.215 169.038H959.468" stroke="#B3B3B3"/>
<path d="M460.449 162.689H980.233" stroke="#B3B3B3"/>
<path d="M430.549 153.548H1010.13" stroke="#B3B3B3"/>
<path d="M388.234 140.611H1052.45" stroke="#B3B3B3"/>
<path d="M329.286 122.589H1111.4" stroke="#B3B3B3"/>
<path d="M248.34 97.8409H1192.34" stroke="#B3B3B3"/>
<path d="M138.643 64.3033H1302.04" stroke="#B3B3B3"/>
<path d="M-8.22144 19.4022H1448.9" stroke="#B3B3B3"/>
</g>
</svg>
