<svg width="1440" height="357" viewBox="0 0 1440 357" fill="none" xmlns="http://www.w3.org/2000/svg">
<g opacity="0.2">
<path d="M520.341 0.664429L-788 400.664" stroke="#B3B3B3"/>
<path d="M537.732 0.664429L-388.927 400.664" stroke="#B3B3B3"/>
<path d="M555.124 0.664429L-146.275 400.664" stroke="#B3B3B3"/>
<path d="M572.515 0.664429L22.84 400.664" stroke="#B3B3B3"/>
<path d="M589.906 0.664429L151.717 400.664" stroke="#B3B3B3"/>
<path d="M607.298 0.664429L256.373 400.664" stroke="#B3B3B3"/>
<path d="M624.689 0.664429L345.51 400.664" stroke="#B3B3B3"/>
<path d="M642.08 0.664429L424.308 400.664" stroke="#B3B3B3"/>
<path d="M659.472 0.664429L496.093 400.664" stroke="#B3B3B3"/>
<path d="M676.863 0.664429L563.149 400.664" stroke="#B3B3B3"/>
<path d="M694.254 0.664429L627.161 400.664" stroke="#B3B3B3"/>
<path d="M711.646 0.664429L689.465 400.664" stroke="#B3B3B3"/>
<path d="M729.037 0.664429L751.218 400.664" stroke="#B3B3B3"/>
<path d="M746.428 0.664429L813.521 400.664" stroke="#B3B3B3"/>
<path d="M763.819 0.664429L877.533 400.664" stroke="#B3B3B3"/>
<path d="M781.211 0.664429L944.589 400.664" stroke="#B3B3B3"/>
<path d="M798.602 0.664429L1016.37 400.664" stroke="#B3B3B3"/>
<path d="M815.993 0.664429L1095.17 400.664" stroke="#B3B3B3"/>
<path d="M833.385 0.664429L1184.31 400.664" stroke="#B3B3B3"/>
<path d="M850.776 0.664429L1288.97 400.664" stroke="#B3B3B3"/>
<path d="M868.167 0.664429L1417.84 400.664" stroke="#B3B3B3"/>
<path d="M885.559 0.664429L1586.96 400.664" stroke="#B3B3B3"/>
<path d="M902.95 0.664429L1829.61 400.664" stroke="#B3B3B3"/>
<path d="M920.341 0.664429L2228.68 400.664" stroke="#B3B3B3"/>
<path d="M520.341 0.664429H920.341" stroke="#B3B3B3"/>
<path d="M520.341 0.664429H920.341" stroke="#B3B3B3"/>
<path d="M520.341 0.664429H920.341" stroke="#B3B3B3"/>
<path d="M520.341 0.664429H920.341" stroke="#B3B3B3"/>
<path d="M520.341 0.664459H920.341" stroke="#B3B3B3"/>
<path d="M520.341 0.664612H920.342" stroke="#B3B3B3"/>
<path d="M520.338 0.665283H920.344" stroke="#B3B3B3"/>
<path d="M520.331 0.667419H920.351" stroke="#B3B3B3"/>
<path d="M520.311 0.673523H920.371" stroke="#B3B3B3"/>
<path d="M520.262 0.68866H920.42" stroke="#B3B3B3"/>
<path d="M520.151 0.722534H920.531" stroke="#B3B3B3"/>
<path d="M519.922 0.792572H920.76" stroke="#B3B3B3"/>
<path d="M519.478 0.928284H921.204" stroke="#B3B3B3"/>
<path d="M518.664 1.17715H922.018" stroke="#B3B3B3"/>
<path d="M517.239 1.61288H923.443" stroke="#B3B3B3"/>
<path d="M514.841 2.34601H925.841" stroke="#B3B3B3"/>
<path d="M510.944 3.53754H929.739" stroke="#B3B3B3"/>
<path d="M504.798 5.4165H935.884" stroke="#B3B3B3"/>
<path d="M495.362 8.30133H945.32" stroke="#B3B3B3"/>
<path d="M481.215 12.6266H959.468" stroke="#B3B3B3"/>
<path d="M460.449 18.9752H980.233" stroke="#B3B3B3"/>
<path d="M430.549 28.1166H1010.13" stroke="#B3B3B3"/>
<path d="M388.234 41.0536H1052.45" stroke="#B3B3B3"/>
<path d="M329.286 59.0758H1111.4" stroke="#B3B3B3"/>
<path d="M248.34 83.8235H1192.34" stroke="#B3B3B3"/>
<path d="M138.643 117.361H1302.04" stroke="#B3B3B3"/>
<path d="M-8.22144 162.262H1448.9" stroke="#B3B3B3"/>
<path d="M-202.656 221.707H1643.34" stroke="#B3B3B3"/>
<path d="M-457.412 299.594H1898.09" stroke="#B3B3B3"/>
</g>
</svg>
